<mxfile host="Electron" agent="Mozilla/5.0 (Macintosh; Intel Mac OS X 10_15_7) AppleWebKit/537.36 (KHTML, like Gecko) draw.io/24.7.17 Chrome/128.0.6613.36 Electron/32.0.1 Safari/537.36" version="24.7.17">
  <diagram name="Expression Hierarchy" id="B6yHBA0yNes8BWCViT4E">
    <mxGraphModel dx="885" dy="609" grid="1" gridSize="10" guides="1" tooltips="1" connect="1" arrows="1" fold="1" page="1" pageScale="1" pageWidth="827" pageHeight="1169" math="0" shadow="0">
      <root>
        <mxCell id="0" />
        <mxCell id="1" parent="0" />
        <mxCell id="3NF6qjgnj08wNpHQOnpI-1" value="&lt;p style=&quot;margin:0px;margin-top:4px;text-align:center;&quot;&gt;&lt;i&gt;&amp;lt;&amp;lt;Interface&amp;gt;&amp;gt;&lt;/i&gt;&lt;br&gt;&lt;b&gt;AudlangExpression&lt;/b&gt;&lt;/p&gt;&lt;p style=&quot;margin:0px;margin-left:4px;&quot;&gt;&lt;br&gt;&lt;/p&gt;" style="verticalAlign=top;align=left;overflow=fill;html=1;whiteSpace=wrap;fillColor=#dae8fc;strokeColor=#6c8ebf;" parent="1" vertex="1">
          <mxGeometry x="410" y="290" width="170" height="40" as="geometry" />
        </mxCell>
        <mxCell id="3NF6qjgnj08wNpHQOnpI-2" value="&lt;p style=&quot;margin:0px;margin-top:4px;text-align:center;&quot;&gt;&lt;i&gt;&amp;lt;&amp;lt;Interface&amp;gt;&amp;gt;&lt;/i&gt;&lt;br&gt;&lt;b&gt;CommentAware&lt;/b&gt;&lt;/p&gt;&lt;p style=&quot;margin:0px;margin-left:4px;&quot;&gt;&lt;br&gt;&lt;/p&gt;" style="verticalAlign=top;align=left;overflow=fill;html=1;whiteSpace=wrap;fillColor=#dae8fc;strokeColor=#6c8ebf;" parent="1" vertex="1">
          <mxGeometry x="218.5" y="290" width="181.5" height="40" as="geometry" />
        </mxCell>
        <mxCell id="3NF6qjgnj08wNpHQOnpI-3" value="&lt;p style=&quot;margin:0px;margin-top:4px;text-align:center;&quot;&gt;&lt;i&gt;&amp;lt;&amp;lt;Interface&amp;gt;&amp;gt;&lt;/i&gt;&lt;br&gt;&lt;b&gt;PlExpression&lt;/b&gt;&lt;/p&gt;" style="verticalAlign=top;align=left;overflow=fill;html=1;whiteSpace=wrap;fillColor=#dae8fc;strokeColor=#6c8ebf;" parent="1" vertex="1">
          <mxGeometry x="269" y="400" width="190" height="40" as="geometry" />
        </mxCell>
        <mxCell id="3NF6qjgnj08wNpHQOnpI-7" value="" style="endArrow=block;endSize=16;endFill=0;html=1;rounded=0;entryX=0.5;entryY=1;entryDx=0;entryDy=0;" parent="1" edge="1">
          <mxGeometry x="-0.8611" y="21" width="160" relative="1" as="geometry">
            <mxPoint x="421" y="400" as="sourcePoint" />
            <mxPoint x="495" y="330" as="targetPoint" />
            <Array as="points">
              <mxPoint x="421" y="380" />
              <mxPoint x="495" y="380" />
            </Array>
            <mxPoint as="offset" />
          </mxGeometry>
        </mxCell>
        <mxCell id="3NF6qjgnj08wNpHQOnpI-10" value="" style="endArrow=block;endSize=16;endFill=0;html=1;rounded=0;entryX=0.75;entryY=1;entryDx=0;entryDy=0;exitX=0.452;exitY=0.002;exitDx=0;exitDy=0;exitPerimeter=0;" parent="1" target="3NF6qjgnj08wNpHQOnpI-2" edge="1" source="3NF6qjgnj08wNpHQOnpI-3">
          <mxGeometry x="-0.4092" y="20" width="160" relative="1" as="geometry">
            <mxPoint x="369" y="400" as="sourcePoint" />
            <mxPoint x="405" y="330" as="targetPoint" />
            <mxPoint as="offset" />
          </mxGeometry>
        </mxCell>
        <mxCell id="SRTB3e_779GIYS2lEAyd-20" value="extends" style="edgeLabel;html=1;align=center;verticalAlign=middle;resizable=0;points=[];" vertex="1" connectable="0" parent="3NF6qjgnj08wNpHQOnpI-10">
          <mxGeometry x="-0.8941" relative="1" as="geometry">
            <mxPoint x="-23" y="-6" as="offset" />
          </mxGeometry>
        </mxCell>
        <mxCell id="SRTB3e_779GIYS2lEAyd-27" value="extends" style="edgeLabel;html=1;align=center;verticalAlign=middle;resizable=0;points=[];" vertex="1" connectable="0" parent="3NF6qjgnj08wNpHQOnpI-10">
          <mxGeometry x="-0.8941" relative="1" as="geometry">
            <mxPoint x="43" y="-6" as="offset" />
          </mxGeometry>
        </mxCell>
        <mxCell id="3NF6qjgnj08wNpHQOnpI-12" style="rounded=0;orthogonalLoop=1;jettySize=auto;html=1;entryX=1;entryY=0.5;entryDx=0;entryDy=0;endArrow=none;endFill=0;dashed=1;" parent="1" source="3NF6qjgnj08wNpHQOnpI-11" target="3NF6qjgnj08wNpHQOnpI-3" edge="1">
          <mxGeometry relative="1" as="geometry" />
        </mxCell>
        <mxCell id="3NF6qjgnj08wNpHQOnpI-11" value="&lt;span style=&quot;font-size: 10px;&quot;&gt;Interface&amp;nbsp; to be implemented by all presentation layer expressions,&lt;/span&gt;&lt;div&gt;&lt;span style=&quot;font-size: 10px;&quot;&gt;inherits from AudlangExpression and adds the comments-feature.&lt;/span&gt;&lt;/div&gt;" style="shape=note;whiteSpace=wrap;html=1;backgroundOutline=1;darkOpacity=0.05;size=13;labelBackgroundColor=none;fillColor=#FFFFCC;gradientColor=none;align=left;" parent="1" vertex="1">
          <mxGeometry x="515" y="380" width="190" height="60" as="geometry" />
        </mxCell>
        <mxCell id="3NF6qjgnj08wNpHQOnpI-13" value="&lt;p style=&quot;margin:0px;margin-top:4px;text-align:center;&quot;&gt;&lt;i&gt;&amp;lt;&amp;lt;record&amp;gt;&amp;gt;&lt;/i&gt;&lt;br&gt;&lt;b&gt;PlMatchExpression&lt;/b&gt;&lt;/p&gt;&lt;hr size=&quot;1&quot; style=&quot;border-style:solid;&quot;&gt;&lt;p style=&quot;margin:0px;margin-left:4px;&quot;&gt;+ argName: String&lt;br&gt;+ operator: PlMatchOperator&lt;/p&gt;&lt;p style=&quot;margin:0px;margin-left:4px;&quot;&gt;&lt;span style=&quot;background-color: initial;&quot;&gt;+ comments: List&amp;lt;PlComment&amp;gt;&lt;/span&gt;&lt;br&gt;&lt;/p&gt;" style="verticalAlign=top;align=left;overflow=fill;html=1;whiteSpace=wrap;fillColor=#ffe6cc;strokeColor=#d79b00;" parent="1" vertex="1">
          <mxGeometry x="19" y="540" width="190" height="110" as="geometry" />
        </mxCell>
        <mxCell id="3NF6qjgnj08wNpHQOnpI-14" value="" style="endArrow=block;dashed=1;endFill=0;endSize=12;html=1;rounded=0;exitX=0.75;exitY=0;exitDx=0;exitDy=0;entryX=0.068;entryY=0.996;entryDx=0;entryDy=0;entryPerimeter=0;" parent="1" source="3NF6qjgnj08wNpHQOnpI-13" target="3NF6qjgnj08wNpHQOnpI-3" edge="1">
          <mxGeometry width="160" relative="1" as="geometry">
            <mxPoint x="269" y="460" as="sourcePoint" />
            <mxPoint x="369" y="440" as="targetPoint" />
            <Array as="points">
              <mxPoint x="162" y="520" />
              <mxPoint x="282" y="520" />
            </Array>
          </mxGeometry>
        </mxCell>
        <mxCell id="3NF6qjgnj08wNpHQOnpI-15" value="&lt;span style=&quot;font-size: 10px;&quot;&gt;Records have been chosen because they are unmodifiable, final, and we can easily delegate equals/hashcode to the string representation. The individual constructor ensures also the lists are immutable as well.&lt;/span&gt;" style="shape=note;whiteSpace=wrap;html=1;backgroundOutline=1;darkOpacity=0.05;size=13;labelBackgroundColor=none;fillColor=#FFFFCC;gradientColor=none;align=left;" parent="1" vertex="1">
          <mxGeometry x="345" y="880" width="360" height="50" as="geometry" />
        </mxCell>
        <mxCell id="3NF6qjgnj08wNpHQOnpI-17" value="&lt;p style=&quot;margin:0px;margin-top:4px;text-align:center;&quot;&gt;&lt;i&gt;&amp;lt;&amp;lt;record&amp;gt;&amp;gt;&lt;/i&gt;&lt;br&gt;&lt;b&gt;PlNegationExpression&lt;/b&gt;&lt;/p&gt;&lt;hr size=&quot;1&quot; style=&quot;border-style:solid;&quot;&gt;&lt;p style=&quot;margin:0px;margin-left:4px;&quot;&gt;+ isStrict: boolean&lt;/p&gt;&lt;p style=&quot;margin:0px;margin-left:4px;&quot;&gt;+&amp;nbsp;&lt;span style=&quot;background-color: initial;&quot;&gt;comments: List&amp;lt;PlComment&amp;gt;&lt;/span&gt;&lt;/p&gt;" style="verticalAlign=top;align=left;overflow=fill;html=1;whiteSpace=wrap;fillColor=#ffe6cc;strokeColor=#d79b00;" parent="1" vertex="1">
          <mxGeometry x="20" y="700" width="190" height="100" as="geometry" />
        </mxCell>
        <mxCell id="3NF6qjgnj08wNpHQOnpI-19" value="" style="endArrow=block;dashed=1;endFill=0;endSize=12;html=1;rounded=0;exitX=0.5;exitY=0;exitDx=0;exitDy=0;entryX=0.158;entryY=1.011;entryDx=0;entryDy=0;entryPerimeter=0;" parent="1" source="3NF6qjgnj08wNpHQOnpI-17" edge="1" target="3NF6qjgnj08wNpHQOnpI-3">
          <mxGeometry width="160" relative="1" as="geometry">
            <mxPoint x="204" y="550" as="sourcePoint" />
            <mxPoint x="409" y="440" as="targetPoint" />
            <Array as="points">
              <mxPoint x="115" y="680" />
              <mxPoint x="299" y="680" />
            </Array>
          </mxGeometry>
        </mxCell>
        <mxCell id="3NF6qjgnj08wNpHQOnpI-20" value="&lt;p style=&quot;margin:0px;margin-top:4px;text-align:center;&quot;&gt;&lt;i&gt;&amp;lt;&amp;lt;record&amp;gt;&amp;gt;&lt;/i&gt;&lt;br&gt;&lt;b&gt;PlOperand&lt;/b&gt;&lt;/p&gt;&lt;hr size=&quot;1&quot; style=&quot;border-style:solid;&quot;&gt;&lt;p style=&quot;margin:0px;margin-left:4px;&quot;&gt;+ value: String&lt;br&gt;+ isReference: boolean&lt;/p&gt;&lt;p style=&quot;margin:0px;margin-left:4px;&quot;&gt;+&amp;nbsp;&lt;span style=&quot;background-color: initial;&quot;&gt;comments: List&amp;lt;PlComment&amp;gt;&lt;/span&gt;&lt;/p&gt;" style="verticalAlign=top;align=left;overflow=fill;html=1;whiteSpace=wrap;fillColor=#ffe6cc;strokeColor=#d79b00;" parent="1" vertex="1">
          <mxGeometry x="19" y="380" width="190" height="110" as="geometry" />
        </mxCell>
        <mxCell id="3NF6qjgnj08wNpHQOnpI-21" value="" style="endArrow=block;dashed=1;endFill=0;endSize=12;html=1;rounded=0;" parent="1" edge="1">
          <mxGeometry width="160" relative="1" as="geometry">
            <mxPoint x="160" y="380" as="sourcePoint" />
            <mxPoint x="310" y="330" as="targetPoint" />
            <Array as="points">
              <mxPoint x="160" y="360" />
              <mxPoint x="310" y="360" />
            </Array>
          </mxGeometry>
        </mxCell>
        <mxCell id="3NF6qjgnj08wNpHQOnpI-22" value="&lt;p style=&quot;margin:0px;margin-top:4px;text-align:center;&quot;&gt;&lt;i&gt;&amp;lt;&amp;lt;Interface&amp;gt;&amp;gt;&lt;/i&gt;&lt;br&gt;&lt;b&gt;AudlangFormattable&lt;/b&gt;&lt;/p&gt;&lt;p style=&quot;margin:0px;margin-left:4px;&quot;&gt;&lt;br&gt;&lt;/p&gt;" style="verticalAlign=top;align=left;overflow=fill;html=1;whiteSpace=wrap;" parent="1" vertex="1">
          <mxGeometry x="19" y="290" width="191" height="40" as="geometry" />
        </mxCell>
        <mxCell id="3NF6qjgnj08wNpHQOnpI-23" value="" style="endArrow=block;dashed=1;endFill=0;endSize=12;html=1;rounded=0;entryX=0.5;entryY=1;entryDx=0;entryDy=0;exitX=0.5;exitY=0;exitDx=0;exitDy=0;" parent="1" source="3NF6qjgnj08wNpHQOnpI-20" target="3NF6qjgnj08wNpHQOnpI-22" edge="1">
          <mxGeometry width="160" relative="1" as="geometry">
            <mxPoint x="629" y="285" as="sourcePoint" />
            <mxPoint x="559" y="320" as="targetPoint" />
          </mxGeometry>
        </mxCell>
        <mxCell id="3NF6qjgnj08wNpHQOnpI-24" value="&lt;p style=&quot;margin:0px;margin-top:4px;text-align:center;&quot;&gt;&lt;i&gt;&amp;lt;&amp;lt;record&amp;gt;&amp;gt;&lt;/i&gt;&lt;br&gt;&lt;b&gt;PlSpecialSetExpression&lt;/b&gt;&lt;/p&gt;&lt;hr size=&quot;1&quot; style=&quot;border-style:solid;&quot;&gt;&lt;p style=&quot;margin:0px;margin-left:4px;&quot;&gt;+ setType: SpecialSetType&lt;br&gt;+&amp;nbsp;&lt;span style=&quot;background-color: initial;&quot;&gt;comments: List&amp;lt;PlComment&amp;gt;&lt;/span&gt;&lt;/p&gt;" style="verticalAlign=top;align=left;overflow=fill;html=1;whiteSpace=wrap;fillColor=#ffe6cc;strokeColor=#d79b00;" parent="1" vertex="1">
          <mxGeometry x="20" y="850" width="190" height="80" as="geometry" />
        </mxCell>
        <mxCell id="3NF6qjgnj08wNpHQOnpI-25" value="&lt;span style=&quot;font-size: 10px;&quot;&gt;&amp;lt;ALL&amp;gt; vs. &amp;lt;NONE&amp;gt;&lt;/span&gt;" style="shape=note;whiteSpace=wrap;html=1;backgroundOutline=1;darkOpacity=0.05;size=13;labelBackgroundColor=none;fillColor=#FFFFCC;gradientColor=none;align=left;" parent="1" vertex="1">
          <mxGeometry x="20" y="817" width="110" height="20" as="geometry" />
        </mxCell>
        <mxCell id="3NF6qjgnj08wNpHQOnpI-26" style="rounded=0;orthogonalLoop=1;jettySize=auto;html=1;entryX=0.5;entryY=0;entryDx=0;entryDy=0;endArrow=none;endFill=0;dashed=1;exitX=0.5;exitY=1;exitDx=0;exitDy=0;exitPerimeter=0;" parent="1" source="3NF6qjgnj08wNpHQOnpI-25" target="3NF6qjgnj08wNpHQOnpI-24" edge="1">
          <mxGeometry relative="1" as="geometry" />
        </mxCell>
        <mxCell id="3NF6qjgnj08wNpHQOnpI-27" value="" style="endArrow=block;dashed=1;endFill=0;endSize=12;html=1;rounded=0;exitX=0.75;exitY=0;exitDx=0;exitDy=0;entryX=0.419;entryY=0.999;entryDx=0;entryDy=0;entryPerimeter=0;" parent="1" source="3NF6qjgnj08wNpHQOnpI-24" target="3NF6qjgnj08wNpHQOnpI-3" edge="1">
          <mxGeometry width="160" relative="1" as="geometry">
            <mxPoint x="195" y="680" as="sourcePoint" />
            <mxPoint x="369" y="440" as="targetPoint" />
            <Array as="points">
              <mxPoint x="163" y="830" />
              <mxPoint x="349" y="830" />
            </Array>
          </mxGeometry>
        </mxCell>
        <mxCell id="3NF6qjgnj08wNpHQOnpI-28" value="&lt;p style=&quot;margin:0px;margin-top:4px;text-align:center;&quot;&gt;&lt;i&gt;&amp;lt;&amp;lt;record&amp;gt;&amp;gt;&lt;/i&gt;&lt;br&gt;&lt;b&gt;PlCombinedExpression&lt;/b&gt;&lt;/p&gt;&lt;hr size=&quot;1&quot; style=&quot;border-style:solid;&quot;&gt;&lt;p style=&quot;margin:0px;margin-left:4px;&quot;&gt;+ combiType: CombinedExpressionType&lt;br&gt;&lt;/p&gt;&lt;p style=&quot;margin:0px;margin-left:4px;&quot;&gt;+&amp;nbsp;&lt;span style=&quot;background-color: initial;&quot;&gt;comments: List&amp;lt;PlComment&amp;gt;&lt;/span&gt;&lt;/p&gt;" style="verticalAlign=top;align=left;overflow=fill;html=1;whiteSpace=wrap;fillColor=#ffe6cc;strokeColor=#d79b00;" parent="1" vertex="1">
          <mxGeometry x="410" y="540" width="230" height="95" as="geometry" />
        </mxCell>
        <mxCell id="3NF6qjgnj08wNpHQOnpI-29" value="" style="endArrow=block;dashed=1;endFill=0;endSize=12;html=1;rounded=0;exitX=0.25;exitY=0;exitDx=0;exitDy=0;entryX=0.7;entryY=1.008;entryDx=0;entryDy=0;entryPerimeter=0;" parent="1" source="3NF6qjgnj08wNpHQOnpI-28" target="3NF6qjgnj08wNpHQOnpI-3" edge="1">
          <mxGeometry width="160" relative="1" as="geometry">
            <mxPoint x="261" y="690" as="sourcePoint" />
            <mxPoint x="383" y="440" as="targetPoint" />
            <Array as="points">
              <mxPoint x="468" y="520" />
              <mxPoint x="402" y="520" />
            </Array>
          </mxGeometry>
        </mxCell>
        <mxCell id="3NF6qjgnj08wNpHQOnpI-30" value="&lt;span style=&quot;font-size: 10px;&quot;&gt;AND vs. OR&lt;/span&gt;" style="shape=note;whiteSpace=wrap;html=1;backgroundOutline=1;darkOpacity=0.05;size=13;labelBackgroundColor=none;fillColor=#FFFFCC;gradientColor=none;align=center;" parent="1" vertex="1">
          <mxGeometry x="605" y="500" width="100" height="20" as="geometry" />
        </mxCell>
        <mxCell id="3NF6qjgnj08wNpHQOnpI-31" style="rounded=0;orthogonalLoop=1;jettySize=auto;html=1;entryX=0.75;entryY=0;entryDx=0;entryDy=0;endArrow=none;endFill=0;dashed=1;" parent="1" source="3NF6qjgnj08wNpHQOnpI-30" target="3NF6qjgnj08wNpHQOnpI-28" edge="1">
          <mxGeometry relative="1" as="geometry" />
        </mxCell>
        <mxCell id="SRTB3e_779GIYS2lEAyd-11" style="edgeStyle=orthogonalEdgeStyle;rounded=0;orthogonalLoop=1;jettySize=auto;html=1;exitX=0.5;exitY=0;exitDx=0;exitDy=0;entryX=0.5;entryY=1;entryDx=0;entryDy=0;endArrow=open;endFill=0;strokeWidth=2;" edge="1" parent="1" source="3NF6qjgnj08wNpHQOnpI-32" target="3NF6qjgnj08wNpHQOnpI-28">
          <mxGeometry relative="1" as="geometry" />
        </mxCell>
        <mxCell id="SRTB3e_779GIYS2lEAyd-12" value="curbDelegate&amp;nbsp;" style="edgeLabel;html=1;align=center;verticalAlign=middle;resizable=0;points=[];" vertex="1" connectable="0" parent="SRTB3e_779GIYS2lEAyd-11">
          <mxGeometry x="-0.3978" relative="1" as="geometry">
            <mxPoint x="39" y="5" as="offset" />
          </mxGeometry>
        </mxCell>
        <mxCell id="3NF6qjgnj08wNpHQOnpI-32" value="&lt;p style=&quot;margin:0px;margin-top:4px;text-align:center;&quot;&gt;&lt;i&gt;&amp;lt;&amp;lt;record&amp;gt;&amp;gt;&lt;/i&gt;&lt;br&gt;&lt;b&gt;PlCurbExpression&lt;/b&gt;&lt;/p&gt;&lt;hr size=&quot;1&quot; style=&quot;border-style:solid;&quot;&gt;&lt;p style=&quot;margin:0px;margin-left:4px;&quot;&gt;+ operator: PlCurbOperator&lt;/p&gt;&lt;p style=&quot;margin:0px;margin-left:4px;&quot;&gt;+&amp;nbsp;&lt;span style=&quot;background-color: initial;&quot;&gt;bound: int&lt;/span&gt;&lt;/p&gt;&lt;p style=&quot;margin:0px;margin-left:4px;&quot;&gt;+&amp;nbsp;&lt;span style=&quot;background-color: initial;&quot;&gt;comments: List&amp;lt;PlComment&amp;gt;&lt;/span&gt;&lt;span style=&quot;background-color: initial;&quot;&gt;&lt;br&gt;&lt;/span&gt;&lt;/p&gt;" style="verticalAlign=top;align=left;overflow=fill;html=1;whiteSpace=wrap;fillColor=#ffe6cc;strokeColor=#d79b00;" parent="1" vertex="1">
          <mxGeometry x="410" y="700" width="230" height="100" as="geometry" />
        </mxCell>
        <mxCell id="3NF6qjgnj08wNpHQOnpI-34" value="" style="endArrow=block;dashed=1;endFill=0;endSize=12;html=1;rounded=0;exitX=0.25;exitY=0;exitDx=0;exitDy=0;entryX=0.573;entryY=0.996;entryDx=0;entryDy=0;entryPerimeter=0;" parent="1" source="3NF6qjgnj08wNpHQOnpI-32" target="3NF6qjgnj08wNpHQOnpI-3" edge="1">
          <mxGeometry width="160" relative="1" as="geometry">
            <mxPoint x="549" y="700" as="sourcePoint" />
            <mxPoint x="368" y="440" as="targetPoint" />
            <Array as="points">
              <mxPoint x="468" y="680" />
              <mxPoint x="380" y="680" />
            </Array>
          </mxGeometry>
        </mxCell>
        <mxCell id="SRTB3e_779GIYS2lEAyd-1" value="" style="endArrow=diamondThin;endFill=0;endSize=24;html=1;rounded=0;entryX=0.5;entryY=0;entryDx=0;entryDy=0;strokeWidth=2;" edge="1" parent="1" target="3NF6qjgnj08wNpHQOnpI-28">
          <mxGeometry width="160" relative="1" as="geometry">
            <mxPoint x="426" y="439" as="sourcePoint" />
            <mxPoint x="490" y="570" as="targetPoint" />
            <Array as="points">
              <mxPoint x="426" y="490" />
              <mxPoint x="525" y="490" />
            </Array>
          </mxGeometry>
        </mxCell>
        <mxCell id="SRTB3e_779GIYS2lEAyd-5" value="members" style="edgeLabel;html=1;align=center;verticalAlign=middle;resizable=0;points=[];" vertex="1" connectable="0" parent="SRTB3e_779GIYS2lEAyd-1">
          <mxGeometry x="0.6624" relative="1" as="geometry">
            <mxPoint x="30" y="-3" as="offset" />
          </mxGeometry>
        </mxCell>
        <mxCell id="SRTB3e_779GIYS2lEAyd-6" value="2 .. *" style="edgeLabel;html=1;align=center;verticalAlign=middle;resizable=0;points=[];" vertex="1" connectable="0" parent="SRTB3e_779GIYS2lEAyd-1">
          <mxGeometry x="-0.9416" relative="1" as="geometry">
            <mxPoint x="14" y="5" as="offset" />
          </mxGeometry>
        </mxCell>
        <mxCell id="SRTB3e_779GIYS2lEAyd-16" style="rounded=0;orthogonalLoop=1;jettySize=auto;html=1;endArrow=oval;endFill=1;dashed=1;" edge="1" parent="1" source="SRTB3e_779GIYS2lEAyd-13">
          <mxGeometry relative="1" as="geometry">
            <mxPoint x="600" y="686" as="targetPoint" />
          </mxGeometry>
        </mxCell>
        <mxCell id="SRTB3e_779GIYS2lEAyd-13" value="&lt;span style=&quot;font-size: 10px;&quot;&gt;combiType=OR&lt;/span&gt;" style="shape=note;whiteSpace=wrap;html=1;backgroundOutline=1;darkOpacity=0.05;size=13;labelBackgroundColor=none;fillColor=#FFFFCC;gradientColor=none;align=center;" vertex="1" parent="1">
          <mxGeometry x="605" y="656" width="100" height="20" as="geometry" />
        </mxCell>
        <mxCell id="SRTB3e_779GIYS2lEAyd-17" style="edgeStyle=orthogonalEdgeStyle;rounded=0;orthogonalLoop=1;jettySize=auto;html=1;exitX=1;exitY=0.5;exitDx=0;exitDy=0;endArrow=open;endFill=0;strokeWidth=2;" edge="1" parent="1" source="3NF6qjgnj08wNpHQOnpI-17">
          <mxGeometry relative="1" as="geometry">
            <mxPoint x="320" y="505" as="sourcePoint" />
            <mxPoint x="320" y="440" as="targetPoint" />
          </mxGeometry>
        </mxCell>
        <mxCell id="SRTB3e_779GIYS2lEAyd-18" value="delegate" style="edgeLabel;html=1;align=center;verticalAlign=middle;resizable=0;points=[];" vertex="1" connectable="0" parent="SRTB3e_779GIYS2lEAyd-17">
          <mxGeometry x="-0.3978" relative="1" as="geometry">
            <mxPoint x="-83" y="4" as="offset" />
          </mxGeometry>
        </mxCell>
        <mxCell id="SRTB3e_779GIYS2lEAyd-23" value="" style="endArrow=diamondThin;endFill=0;endSize=24;html=1;rounded=0;entryX=0.5;entryY=0;entryDx=0;entryDy=0;strokeWidth=2;exitX=0.5;exitY=1;exitDx=0;exitDy=0;" edge="1" parent="1" source="3NF6qjgnj08wNpHQOnpI-20" target="3NF6qjgnj08wNpHQOnpI-13">
          <mxGeometry width="160" relative="1" as="geometry">
            <mxPoint x="140" y="484" as="sourcePoint" />
            <mxPoint x="259" y="585" as="targetPoint" />
          </mxGeometry>
        </mxCell>
        <mxCell id="SRTB3e_779GIYS2lEAyd-24" value="operands" style="edgeLabel;html=1;align=center;verticalAlign=middle;resizable=0;points=[];" vertex="1" connectable="0" parent="SRTB3e_779GIYS2lEAyd-23">
          <mxGeometry x="0.6624" relative="1" as="geometry">
            <mxPoint x="-38" y="-5" as="offset" />
          </mxGeometry>
        </mxCell>
        <mxCell id="SRTB3e_779GIYS2lEAyd-25" value="*" style="edgeLabel;html=1;align=center;verticalAlign=middle;resizable=0;points=[];" vertex="1" connectable="0" parent="SRTB3e_779GIYS2lEAyd-23">
          <mxGeometry x="-0.9416" relative="1" as="geometry">
            <mxPoint x="6" y="5" as="offset" />
          </mxGeometry>
        </mxCell>
      </root>
    </mxGraphModel>
  </diagram>
</mxfile>
